<svg xmlns="http://www.w3.org/2000/svg" viewBox="0 0 640 512"><path d="M640 317.9C640 409.2 600.6 466.4 529.7 466.4C467.1 466.4 433.9 431.5 372.8 329.9L341.4 277.7C333.1 264.5 326.9 253 321.7 243.3C316.7 253 310.6 264.6 302.3 277.9L271 330C209.7 431.8 176.5 466.4 113.6 466.4C42.67 466.4 0 409.1 0 317.9C0 273.3 13.47 236.9 36.61 215.8C50.38 203.4 69.86 203.2 83.8 215.8C97.97 228.6 98.16 247.8 84.21 260.3C73.17 270.5 66.87 288.6 66.87 317.9C66.87 366.9 84.62 399.5 113.6 399.5C138.6 399.5 161.1 379.1 214.4 289.6L245.6 237.4C284.2 173.2 314.8 140.5 372.8 140.5C430.8 140.5 461.3 173.2 499.9 237.4L531.1 289.6C584.5 379.1 607 399.5 632 399.5C661 399.5 678.7 366.9 678.7 317.9C678.7 288.6 672.4 270.5 661.4 260.3C647.4 247.8 647.6 228.6 661.8 215.8C675.7 203.2 695.2 203.4 709 215.8C732.1 236.9 745.6 273.3 745.6 317.9L640 317.9z"/></svg>
